<svg height="512" viewBox="0 0 64 64" width="512" fill="#ffffff" xmlns="http://www.w3.org/2000/svg"><g id="outline"><path d="m45 2h-26a5.006 5.006 0 0 0 -5 5v50a5.006 5.006 0 0 0 5 5h26a5.006 5.006 0 0 0 5-5v-50a5.006 5.006 0 0 0 -5-5zm-17 2h8v2h-8zm20 53a3 3 0 0 1 -3 3h-26a3 3 0 0 1 -3-3v-7h32zm0-9h-32v-41a3 3 0 0 1 3-3h7v3a1 1 0 0 0 1 1h10a1 1 0 0 0 1-1v-3h7a3 3 0 0 1 3 3z"/><path d="m29 18h-8a1 1 0 0 0 -1 1v8a1 1 0 0 0 1 1h8a1 1 0 0 0 1-1v-8a1 1 0 0 0 -1-1zm-1 8h-6v-6h6z"/><path d="m29 30h-8a1 1 0 0 0 -1 1v8a1 1 0 0 0 1 1h8a1 1 0 0 0 1-1v-8a1 1 0 0 0 -1-1zm-1 8h-6v-6h6z"/><path d="m43 30h-8a1 1 0 0 0 -1 1v8a1 1 0 0 0 1 1h8a1 1 0 0 0 1-1v-8a1 1 0 0 0 -1-1zm-1 8h-6v-6h6z"/><path d="m45 14v-1.67a2.333 2.333 0 0 0 -4.2-1.4l-1.8 2.4-1.8-2.4a2.333 2.333 0 0 0 -4.2 1.4v1.67a1 1 0 0 0 -1 1v12a1 1 0 0 0 1 1h12a1 1 0 0 0 1-1v-12a1 1 0 0 0 -1-1zm-2.6-1.867a.347.347 0 0 1 .6.2v1.667h-2zm-4.4 3.867h2v4h-2zm-3-3.67a.346.346 0 0 1 .6-.2l1.4 1.87h-2zm9 13.67h-10v-10h2v5a1 1 0 0 0 1 1h4a1 1 0 0 0 1-1v-5h2z"/><path d="m32 58a3 3 0 1 0 -3-3 3 3 0 0 0 3 3zm0-4a1 1 0 1 1 -1 1 1 1 0 0 1 1-1z"/><path d="m18 8h2v2h-2z"/><path d="m22 8h2v2h-2z"/></g></svg>