<?xml version="1.0" encoding="iso-8859-1"?>
<!-- Generator: Adobe Illustrator 19.0.0, SVG Export Plug-In . SVG Version: 6.00 Build 0)  -->
<svg version="1.1" id="Capa_1" xmlns="http://www.w3.org/2000/svg" xmlns:xlink="http://www.w3.org/1999/xlink" x="0px" y="0px" fill="#ffffff"
	 viewBox="0 0 512 512" style="enable-background:new 0 0 512 512;" xml:space="preserve">
<g>
	<g>
		<path d="M432.707,386.153l-82.932-97.616l73.666-42.073c7.193-4.108,9.694-13.271,5.586-20.465
			c-4.109-7.194-13.273-9.691-20.465-5.586c-5.928,3.385-145.593,83.154-152.562,87.134c-6.957-3.974-146.61-83.735-152.561-87.134
			c-7.194-4.108-16.355-1.608-20.465,5.586c-4.108,7.194-1.607,16.356,5.586,20.465l73.666,42.073l-82.932,97.616
			c-5.363,6.313-4.594,15.779,1.72,21.144c6.313,5.363,15.78,4.594,21.144-1.72l86.573-101.902l59.83,34.172
			c4.611,2.633,10.267,2.633,14.879,0l59.83-34.172l86.573,101.902c5.363,6.313,14.83,7.083,21.144,1.72
			C437.3,401.933,438.07,392.467,432.707,386.153z"/>
	</g>
</g>
<g>
	<g>
		<path d="M489.318,142.982L263.44,13.975c-4.611-2.633-10.268-2.633-14.879,0L22.683,142.982C8.691,150.973,0,165.947,0,182.058
			V455c0,24.813,20.187,45,45,45h422c24.813,0,45-20.187,45-45V182.058C512,165.946,503.309,150.973,489.318,142.982z M482,455
			c0,8.271-6.729,15-15,15H45c-8.271,0-15-6.729-15-15V182.058c0-5.37,2.897-10.362,7.562-13.026L256,44.274l218.438,124.759
			c4.665,2.664,7.562,7.655,7.562,13.025V455z"/>
	</g>
</g>
<g>
</g>
<g>
</g>
<g>
</g>
<g>
</g>
<g>
</g>
<g>
</g>
<g>
</g>
<g>
</g>
<g>
</g>
<g>
</g>
<g>
</g>
<g>
</g>
<g>
</g>
<g>
</g>
<g>
</g>
</svg>
