<?xml version="1.0" encoding="iso-8859-1"?>
<!-- Generator: Adobe Illustrator 19.0.0, SVG Export Plug-In . SVG Version: 6.00 Build 0)  -->
<svg version="1.1" id="Capa_1" xmlns="http://www.w3.org/2000/svg" xmlns:xlink="http://www.w3.org/1999/xlink" x="0px" y="0px"
	 viewBox="0 0 409.615 409.615" style="enable-background:new 0 0 409.615 409.615;" xml:space="preserve">
<path style="fill:#FCD462;" d="M344.639,74.053c-30.881-9.715-64.865,5.316-78.447,34.702c-8.183,17.706-7.768,36.912-0.711,53.233
	c7.656,17.707,8.757,37.554,1.832,55.56l-0.924,2.402l46.373,17.835l0.417-1.083c6.947-18.062,20.434-33.151,38.161-40.915
	c15.363-6.728,28.135-19.353,34.631-36.244C399.371,124.701,380.805,85.43,344.639,74.053z"/>
<polygon style="fill:#DC8744;" points="335.078,145.678 327.836,129.383 311.542,136.626 302.077,115.327 278.56,224.63 
	283.563,226.555 303.834,132.323 308.854,143.614 325.148,136.372 332.391,152.666 344.038,147.489 298.493,232.296 
	303.474,234.212 356.02,136.37 "/>
<g>
	
		<rect x="248.882" y="103.521" transform="matrix(-0.359 0.9334 -0.9334 -0.359 442.5592 -89.2789)" style="fill:#FCD462;" width="6.113" height="7.634"/>
	
		<rect x="395.877" y="160.079" transform="matrix(-0.359 0.9334 -0.9334 -0.359 695.1078 -149.6171)" style="fill:#FCD462;" width="6.113" height="7.634"/>
	
		<rect x="349.888" y="59.025" transform="matrix(-0.359 0.9334 -0.9334 -0.359 538.6145 -245.765)" style="fill:#FCD462;" width="7.634" height="6.113"/>
	
		<rect x="290.415" y="59.788" transform="matrix(-0.9138 0.4062 -0.4062 -0.9138 587.4793 2.5301)" style="fill:#FCD462;" width="6.113" height="7.634"/>
	
		<rect x="354.37" y="203.746" transform="matrix(-0.9138 0.4062 -0.4062 -0.9138 768.3478 252.0611)" style="fill:#FCD462;" width="6.113" height="7.634"/>
	
		<rect x="393.586" y="100.54" transform="matrix(-0.9138 0.4062 -0.4062 -0.9138 802.6283 36.854)" style="fill:#FCD462;" width="7.634" height="6.113"/>
	
		<rect x="249.66" y="164.504" transform="matrix(-0.9138 0.4062 -0.4062 -0.9138 553.1612 217.7263)" style="fill:#FCD462;" width="7.634" height="6.113"/>
</g>
<rect x="88.28" y="200.038" style="fill:#27A2DB;" width="321.326" height="209.577"/>
<rect x="220.115" y="200.038" style="fill:#E56353;" width="57.661" height="209.577"/>
<g>
	<rect x="227.083" y="200.038" style="fill:#FCD462;" width="5.228" height="209.577"/>
	<rect x="265.591" y="200.038" style="fill:#FCD462;" width="5.228" height="209.577"/>
</g>
<path style="fill:#E56353;" d="M214.652,16.203C204.139,3.448,170.027-7.193,156.347,6.184
	c-35.748,34.957-21.301,92.855-21.301,92.855s26.891-28.97,44.713-57.37C179.758,41.669,200.373,6.657,214.652,16.203z"/>
<path style="fill:#FCD462;" d="M198.29,12.996c-11.199,7.015-20.74,22.684-22.561,25.783
	c-11.943,18.908-29.112,41.377-38.408,52.279c-1.291-12.307-3.622-55.47,23.048-81.478c0.263-0.257,0.594-0.5,0.945-0.757
	c0.385-0.282,0.784-0.575,1.17-0.937c2.962-2.779,13.968-6.236,20.215-7.242c-2.88-0.447-5.744-0.671-8.51-0.632
	c-5.467,1.595-11.154,3.831-13.468,6c-0.291,0.273-0.613,0.505-0.931,0.738c-0.407,0.299-0.829,0.608-1.222,0.991
	c-30.477,29.72-24.269,80.816-23.461,86.545l0.389,2.762l1.856-2.099c8.725-9.869,27.675-34.406,40.619-54.906
	c1.75-2.978,11.075-18.167,21.685-24.869c3.35-2.103,7.09-3.256,9.538-3.968c-0.866-0.634-1.773-1.256-2.734-1.857
	C204.058,10.119,201.082,11.242,198.29,12.996z"/>
<path style="fill:#D15241;" d="M179.758,41.669c-17.822,28.399-44.713,57.37-44.713,57.37l66.071-48.31
	c0,0,21.101-18.417,15.918-30.73c-0.536-1.272-1.35-2.543-2.382-3.795C200.373,6.657,179.758,41.669,179.758,41.669z"/>
<path style="fill:#E56353;" d="M31.401,137.102c-7.589-14.685-3.95-50.232,13.73-57.544c46.203-19.11,93.746,16.953,93.746,16.953
	s-37.214,13.323-70.335,18.532C68.543,115.043,28.244,120.218,31.401,137.102z"/>
<path style="fill:#FCD462;" d="M34.891,120.798c10.856-7.535,29.015-10.142,32.58-10.596c22.082-3.54,49.494-10.483,63.175-14.739
	c-10.806-6.029-49.571-25.156-83.975-10.87c-0.34,0.141-0.693,0.35-1.068,0.571c-0.411,0.243-0.837,0.494-1.322,0.707
	c-3.721,1.63-11.229,10.387-14.612,15.735c0.722-2.824,1.643-5.545,2.768-8.072c3.617-4.399,7.911-8.747,10.816-10.02
	c0.365-0.16,0.706-0.365,1.045-0.565c0.435-0.257,0.885-0.523,1.392-0.734c39.315-16.325,83.847,9.487,88.795,12.485l2.386,1.445
	l-2.66,0.88c-12.506,4.138-42.52,11.905-66.459,15.738c-3.426,0.437-21.059,3.034-31.396,10.15
	c-3.252,2.253-5.783,5.237-7.401,7.208c-0.242-1.045-0.457-2.124-0.632-3.244C29.977,124.968,32.18,122.675,34.891,120.798z"/>
<path style="fill:#D15241;" d="M68.543,115.043c33.121-5.21,70.335-18.532,70.335-18.532l-70.41,41.733
	c0,0-25.234,12.152-34.515,2.542c-0.959-0.993-1.807-2.242-2.552-3.683C28.244,120.218,68.543,115.043,68.543,115.043z"/>
<g transform="matrix(0.83471 -0.55069 0.55069 0.83471 -11.899 27.381)">
	<rect x="-77.313" y="138.812" style="fill:#27A2DB;" width="325.581" height="58.02"/>
	<rect x="57.528" y="138.812" style="fill:#E56353;" width="55.967" height="58.02"/>
</g>
<g>
	
		<rect x="133.745" y="101.64" transform="matrix(-0.8347 0.5507 -0.5507 -0.8347 321.9863 164.6559)" style="fill:#FCD462;" width="5.074" height="58.02"/>
	
		<rect x="164.926" y="81.088" transform="matrix(-0.8347 0.5507 -0.5507 -0.8347 367.8768 109.7777)" style="fill:#FCD462;" width="5.074" height="58.02"/>
</g>
<path style="fill:#D15241;" d="M148.865,189.166c-3.402-14.917-11.012-23.343-24.88-40.039
	c-16.301,14.532-25.133,21.779-30.809,36.045c1.462-38.056,9.239-58.898,24.675-93.866c8.464,0.607,12.696,0.911,21.16,1.518
	C148.857,129.605,153.317,151.325,148.865,189.166z"/>
<g>
	<path style="fill:#FCD462;" d="M121.652,91.578c-0.274-0.02-0.526-0.038-0.809-0.058c-0.138-0.01-0.298-0.021-0.439-0.031
		c-10.156,25.156-20.279,54.859-21.082,82.268c1.713-2.431,3.638-4.744,5.804-7.069c2.354-29.932,8.923-46.673,17.197-75.061
		C122.055,91.607,121.86,91.593,121.652,91.578z"/>
	<path style="fill:#FCD462;" d="M136.458,92.64c-0.14-0.01-0.3-0.022-0.439-0.031c-0.283-0.02-0.534-0.038-0.809-0.058
		c-0.207-0.015-0.403-0.029-0.671-0.048c3.779,29.254,7.686,46.746,5.375,76.682c1.782,2.608,3.326,5.17,4.644,7.819
		C148.01,149.784,142.602,118.966,136.458,92.64z"/>
</g>
<path style="fill:#D15241;" d="M214.769,145.686c-12.375-8.997-17.127-19.309-27.02-38.628c19.774-9.268,29.911-14.536,45.26-14.141
	c-35.562-13.63-57.782-14.681-96.003-14.249c-2.772,8.02-4.158,12.03-6.931,20.051C160.016,122.243,178.228,134.889,214.769,145.686
	z"/>
<g>
	<path style="fill:#FCD462;" d="M135.761,82.27c0.09-0.26,0.172-0.498,0.265-0.766c0.045-0.131,0.098-0.283,0.144-0.416
		c27.123,0.562,58.413,2.942,83.927,12.989c-2.909,0.618-5.793,1.477-8.783,2.554c-28.444-9.613-46.419-10.162-75.773-13.725
		C135.629,82.652,135.693,82.467,135.761,82.27z"/>
	<path style="fill:#FCD462;" d="M130.911,96.299c0.046-0.133,0.098-0.285,0.144-0.416c0.093-0.268,0.175-0.506,0.265-0.767
		c0.068-0.196,0.132-0.382,0.22-0.636c25.407,14.985,39.951,25.46,68.382,35.113c1.697,2.665,3.444,5.092,5.361,7.346
		C178.9,129.404,152.696,112.307,130.911,96.299z"/>
</g>
<path style="fill:#CE412D;" d="M123.523,77.404c-10.328,6.814-13.212,20.657-6.441,30.92l37.401-24.675
	C147.712,73.386,133.851,70.59,123.523,77.404z"/>
<g>
</g>
<g>
</g>
<g>
</g>
<g>
</g>
<g>
</g>
<g>
</g>
<g>
</g>
<g>
</g>
<g>
</g>
<g>
</g>
<g>
</g>
<g>
</g>
<g>
</g>
<g>
</g>
<g>
</g>
</svg>
