<?xml version="1.0" encoding="iso-8859-1"?>
<!-- Generator: Adobe Illustrator 19.0.0, SVG Export Plug-In . SVG Version: 6.00 Build 0)  -->
<svg version="1.1" id="Capa_1" xmlns="http://www.w3.org/2000/svg" xmlns:xlink="http://www.w3.org/1999/xlink" x="0px" y="0px"
	 viewBox="0 0 512 512" style="enable-background:new 0 0 512 512;" xml:space="preserve">
<path style="fill:#ED6EA4;" d="M254.899,101.497c-58.534-58.534-153.513-58.409-211.891,0.375
	c-58.248,58.653-56.93,153.84,1.521,212.291L221.777,491.41c18.293,18.293,47.951,18.293,66.244,0l177.248-177.248
	c58.451-58.451,59.77-153.638,1.521-212.291C408.411,43.088,313.432,42.963,254.899,101.497z"/>
<path style="opacity:0.12;enable-background:new    ;" d="M466.79,101.871c-22.84-22.999-51.283-37.017-80.954-42.057
	c17.207,7.35,33.319,18.066,47.322,32.166c58.248,58.653,56.93,153.84-1.521,212.291L254.389,481.519
	c-7.983,7.983-18.13,12.48-28.553,13.496c18.387,14.586,45.188,13.391,62.184-3.604l177.248-177.248
	C523.719,255.711,525.038,160.524,466.79,101.871z"/>
<path style="fill:#FFABCA;" d="M443.04,18.722c-15.835-15.836-41.53-15.802-57.324,0.101c-15.758,15.868-15.402,41.619,0.411,57.432
	l47.952,47.952c4.949,4.949,12.973,4.949,17.921,0l47.952-47.952c15.813-15.813,16.17-41.565,0.412-57.432
	C484.571,2.92,458.876,2.886,443.04,18.722z"/>
<path style="opacity:0.12;enable-background:new    ;" d="M500.365,18.823c-1.84-1.853-3.819-3.481-5.897-4.903
	c10.819,15.838,8.983,37.731-5.068,51.782l-47.952,47.952c-4.949,4.949-12.972,4.949-17.921,0l10.553,10.553
	c4.949,4.949,12.973,4.949,17.921,0l47.952-47.952C515.766,60.442,516.123,34.691,500.365,18.823z"/>
<g>
	<path style="fill:#394049;" d="M271.715,243.012c-6.518,0-12.445-2.578-16.816-6.768c-4.371,4.19-10.298,6.768-16.816,6.768
		c-13.408,0-24.315-10.908-24.315-24.316c0-4.142,3.358-7.5,7.5-7.5s7.5,3.358,7.5,7.5c0,5.137,4.179,9.316,9.315,9.316
		s9.316-4.179,9.316-9.316c0-4.142,3.358-7.5,7.5-7.5s7.5,3.358,7.5,7.5c0,5.137,4.179,9.316,9.316,9.316
		c5.137,0,9.315-4.179,9.315-9.316c0-4.142,3.358-7.5,7.5-7.5s7.5,3.358,7.5,7.5C296.03,232.104,285.123,243.012,271.715,243.012z"
		/>
	<path style="fill:#394049;" d="M374.081,215.458c-4.142,0-7.5-3.358-7.5-7.5v-8.724c0-4.142,3.358-7.5,7.5-7.5s7.5,3.358,7.5,7.5
		v8.724C381.581,212.1,378.223,215.458,374.081,215.458z"/>
</g>
<g>
	<path style="fill:#FFFFFF;" d="M145.428,252.407h-19.422c-4.142,0-7.5-3.358-7.5-7.5s3.358-7.5,7.5-7.5h19.422
		c4.142,0,7.5,3.358,7.5,7.5S149.57,252.407,145.428,252.407z"/>
	<path style="fill:#FFFFFF;" d="M383.792,252.407H364.37c-4.142,0-7.5-3.358-7.5-7.5s3.358-7.5,7.5-7.5h19.421
		c4.142,0,7.5,3.358,7.5,7.5C391.292,249.049,387.934,252.407,383.792,252.407z"/>
</g>
<path style="fill:#394049;" d="M148.797,215.458c-4.142,0-7.5-3.358-7.5-7.5c0-3.077-2.504-5.581-5.581-5.581
	s-5.58,2.504-5.58,5.581c0,4.142-3.358,7.5-7.5,7.5s-7.5-3.358-7.5-7.5c0-11.348,9.232-20.581,20.58-20.581
	s20.581,9.232,20.581,20.581C156.297,212.1,152.939,215.458,148.797,215.458z"/>
<path style="fill:#FFABCA;" d="M107.692,352.729c-15.835-15.836-41.531-15.802-57.324,0.101
	c-15.758,15.868-15.402,41.619,0.412,57.432l47.952,47.952c4.949,4.949,12.973,4.949,17.921,0l47.952-47.952
	c15.813-15.813,16.17-41.565,0.411-57.432C149.223,336.927,123.527,336.893,107.692,352.729z"/>
<path style="opacity:0.12;enable-background:new    ;" d="M165.016,352.83c-1.84-1.853-3.819-3.481-5.897-4.903
	c10.819,15.838,8.983,37.731-5.068,51.782l-47.952,47.952c-4.949,4.949-12.972,4.949-17.921,0l10.553,10.553
	c4.949,4.949,12.973,4.949,17.921,0l47.952-47.952C180.418,394.45,180.775,368.698,165.016,352.83z"/>
<g>
</g>
<g>
</g>
<g>
</g>
<g>
</g>
<g>
</g>
<g>
</g>
<g>
</g>
<g>
</g>
<g>
</g>
<g>
</g>
<g>
</g>
<g>
</g>
<g>
</g>
<g>
</g>
<g>
</g>
</svg>
