<?xml version="1.0"?>
<svg xmlns="http://www.w3.org/2000/svg" viewBox="0 0 64 64" width="512" height="512"><g id="shopping-shop-store-market-booth"><path d="M34,54H50a3,3,0,0,0,3-3V37a3,3,0,0,0-3-3H34a3,3,0,0,0-3,3V51A3,3,0,0,0,34,54ZM33,37a1,1,0,0,1,1-1H50a1,1,0,0,1,1,1V51a1,1,0,0,1-1,1H34a1,1,0,0,1-1-1Z"/><path d="M47,43h2V39a1,1,0,0,0-1-1H44v2h3Z"/><rect x="22" y="47" width="2" height="2"/><path d="M59,56H57V31.9A5.017,5.017,0,0,0,61,27a.66.66,0,0,0-.01-.14L59.24,14.58A3.02,3.02,0,0,0,56.27,12H49V5a3.009,3.009,0,0,0-3-3H18a3.009,3.009,0,0,0-3,3v7H7.73a3.02,3.02,0,0,0-2.97,2.58L3.01,26.86A.66.66,0,0,0,3,27a5.017,5.017,0,0,0,4,4.9V56H5a3,3,0,0,0,0,6H59a3,3,0,0,0,0-6ZM53,14h3.27a.991.991,0,0,1,.98.86L59,27.07A3,3,0,0,1,53,27Zm-4,9V14h2V27a3,3,0,0,1-6,0V26h1A3.009,3.009,0,0,0,49,23ZM17,5a1,1,0,0,1,1-1H46a1,1,0,0,1,1,1V23a1,1,0,0,1-1,1H18a1,1,0,0,1-1-1ZM43,26v1a3,3,0,0,1-6,0V26Zm-8,0v1a3,3,0,0,1-6,0V26Zm-8,0v1a3,3,0,0,1-6,0V26ZM13,14h2v9a3.009,3.009,0,0,0,3,3h1v1a3,3,0,0,1-6,0ZM12,30a5,5,0,0,0,8,0,5,5,0,0,0,8,0,5,5,0,0,0,8,0,5,5,0,0,0,8,0,5,5,0,0,0,8,0,4.994,4.994,0,0,0,3,1.89V56H27V42a8,8,0,0,0-16,0V56H9V31.89A4.994,4.994,0,0,0,12,30ZM25,42V56H13V42a6,6,0,0,1,12,0ZM5,27.07,6.75,14.86A.991.991,0,0,1,7.73,14H11V27a3,3,0,0,1-6,.07ZM59,60H5a1,1,0,0,1,0-2H59a1,1,0,0,1,0,2Z"/><path d="M35.21,16.26l1.76-7.02a1.022,1.022,0,0,0-.18-.86A1,1,0,0,0,36,8H23V7a1,1,0,0,0-1-1H19V8h2V9a1,1,0,0,0,1,1h1.22l1.57,6.26A3.014,3.014,0,1,0,28.82,18h2.36a3,3,0,1,0,4.03-1.74ZM26,20a1,1,0,1,1,1-1A1,1,0,0,1,26,20Zm1-4h-.22l-.5-2H27Zm0-4H25.78l-.5-2H27Zm4,4H29V14h2Zm0-4H29V10h2Zm2-2h1.72l-.5,2H33Zm0,4h.72l-.5,2H33Zm1,6a1,1,0,1,1,1-1A1,1,0,0,1,34,20Z"/><path d="M44,12V11a3,3,0,0,0-6,0v1a1,1,0,0,0-1,1v4a1,1,0,0,0,1,1h6a1,1,0,0,0,1-1V13A1,1,0,0,0,44,12Zm-4-1a1,1,0,0,1,2,0v1H40Zm3,5H39V14h4Z"/></g></svg>
