<svg id="Capa_1" enable-background="new 0 0 508.823 508.823" viewBox="0 0 508.823 508.823" xmlns="http://www.w3.org/2000/svg"><g><path d="m431.185 133.823h-315v300h315zm-180 30h45v60h-45zm150 240h-255v-240h75v90h105v-90h75z"/><path d="m176.185 283.823h90v30h-90z"/><path d="m176.185 343.823h49.565v30h-49.565z"/><path d="m426.685 63.823h-376.043l33.583-46.177-24.261-17.646-57.327 78.823 57.326 78.823 24.262-17.646-33.583-46.177h376.043c27.294 0 49.5 22.206 49.5 49.5v286c0 27.294-22.206 49.5-49.5 49.5h-306c-27.294 0-49.5-22.206-49.5-49.5v-130.5h-30v130.5c0 43.836 35.664 79.5 79.5 79.5h306c43.836 0 79.5-35.664 79.5-79.5v-286c0-43.837-35.664-79.5-79.5-79.5z"/></g></svg>