<?xml version="1.0" encoding="iso-8859-1"?>
<!-- Generator: Adobe Illustrator 19.0.0, SVG Export Plug-In . SVG Version: 6.00 Build 0)  -->
<svg version="1.1" id="Layer_1" xmlns="http://www.w3.org/2000/svg" xmlns:xlink="http://www.w3.org/1999/xlink" x="0px" y="0px"
	 viewBox="0 0 480.606 480.606" style="enable-background:new 0 0 480.606 480.606;" xml:space="preserve">
<g>
	<polygon points="202.039,125.423 172.039,125.423 172.039,172.039 125.422,172.039 125.422,202.039 172.039,202.039 
		172.039,248.655 202.039,248.655 202.039,202.039 248.654,202.039 248.654,172.039 202.039,172.039 	"/>
	<path d="M480.606,459.394L329.409,308.195c27.838-32.663,44.668-74.978,44.668-121.157C374.077,83.905,290.172,0,187.039,0
		S0,83.905,0,187.039s83.905,187.039,187.039,187.039c46.179,0,88.495-16.831,121.157-44.669l151.198,151.198L480.606,459.394z
		 M187.039,344.077C100.447,344.077,30,273.63,30,187.039S100.447,30,187.039,30s157.039,70.447,157.039,157.039
		S273.63,344.077,187.039,344.077z"/>
</g>
<g>
</g>
<g>
</g>
<g>
</g>
<g>
</g>
<g>
</g>
<g>
</g>
<g>
</g>
<g>
</g>
<g>
</g>
<g>
</g>
<g>
</g>
<g>
</g>
<g>
</g>
<g>
</g>
<g>
</g>
</svg>
