<?xml version="1.0" encoding="iso-8859-1"?>
<!-- Generator: Adobe Illustrator 19.0.0, SVG Export Plug-In . SVG Version: 6.00 Build 0)  -->
<svg version="1.1" id="Capa_1" xmlns="http://www.w3.org/2000/svg" xmlns:xlink="http://www.w3.org/1999/xlink" x="0px" y="0px" fill="#5bc0ec"
	 viewBox="0 0 512 512" style="enable-background:new 0 0 512 512;" xml:space="preserve">
<g>
	<g>
		<path d="M86.36,91.08V23.79h-30v67.29H0v117.28h56.36v279.85h30V208.36h56.35V91.08H86.36z M112.71,178.36H30v-57.28h82.71V178.36
			z"/>
	</g>
</g>
<g>
	<g>
		<path d="M271,230.93V23.79h-30v207.14h-56.36v117.29H241v139.99h30V348.22h56.36V230.93H271z M297.36,318.22h-82.72v-57.29h82.72
			V318.22z"/>
	</g>
</g>
<g>
	<g>
		<path d="M455.64,91.08V23.79h-30v67.29h-56.35v117.28h56.35v279.85h30V208.36H512V91.08H455.64z M482,178.36h-82.71v-57.28H482
			V178.36z"/>
	</g>
</g>
<g>
</g>
<g>
</g>
<g>
</g>
<g>
</g>
<g>
</g>
<g>
</g>
<g>
</g>
<g>
</g>
<g>
</g>
<g>
</g>
<g>
</g>
<g>
</g>
<g>
</g>
<g>
</g>
<g>
</g>
</svg>
